<?xml version="1.0" encoding="utf-8"?>
<!-- Generator: Adobe Illustrator 28.2.0, SVG Export Plug-In . SVG Version: 6.00 Build 0)  -->
<svg version="1.1" id="Layer_1" xmlns="http://www.w3.org/2000/svg" xmlns:xlink="http://www.w3.org/1999/xlink" x="0px" y="0px"
	 viewBox="0 0 1280 1024" style="enable-background:new 0 0 1280 1024;" xml:space="preserve">
<style type="text/css">
	.st0{fill:#18D4E8;}
	.st1{fill:#E7ED07;}
	.st2{fill:none;}
	.st3{font-family:'Phetsarath-OT(Modified_28_04_14)';}
	.st4{font-size:36px;}
	.st5{font-size:21px;}
	.st6{font-size:30px;}
	.st7{fill:#B6DDDD;}
	.st8{fill:#EDEDED;}
	.st9{font-size:39px;}
	.st10{font-size:28px;}
	.st11{fill:#FFFFFF;}
	.st12{fill:#D3CD00;}
	.st13{fill:#64CBFF;}
	.st14{fill:#919191;}
</style>
<g>
	<path class="st0" d="M71.14,416.72c-24.06,0-43.64-19.58-43.64-43.64V97.14c0-24.06,19.58-43.64,43.64-43.64h513.73
		c24.06,0,43.64,19.58,43.64,43.64v275.95c0,24.06-19.58,43.64-43.64,43.64H71.14z"/>
	<path d="M584.86,54C608.65,54,628,73.35,628,97.14v275.95c0,23.79-19.35,43.14-43.14,43.14H71.14c-23.79,0-43.14-19.35-43.14-43.14
		V97.14C28,73.35,47.35,54,71.14,54H584.86 M584.86,53H71.14C46.76,53,27,72.76,27,97.14v275.95c0,24.38,19.76,44.14,44.14,44.14
		h513.73c24.38,0,44.14-19.76,44.14-44.14V97.14C629,72.76,609.24,53,584.86,53L584.86,53z"/>
</g>
<g>
	<path class="st1" d="M84.94,398.51c-6.59,0-11.95-5.36-11.95-11.95v-44.39c0-6.59,5.36-11.95,11.95-11.95h322.61
		c6.59,0,11.95,5.36,11.95,11.95v44.39c0,6.59-5.36,11.95-11.95,11.95H84.94z"/>
	<path d="M407.55,330.71c6.32,0,11.45,5.14,11.45,11.45v44.39c0,6.32-5.14,11.45-11.45,11.45H84.94c-6.32,0-11.45-5.14-11.45-11.45
		v-44.39c0-6.32,5.14-11.45,11.45-11.45H407.55 M407.55,329.71H84.94c-6.88,0-12.45,5.58-12.45,12.45v44.39
		c0,6.88,5.58,12.45,12.45,12.45h322.61c6.88,0,12.45-5.58,12.45-12.45v-44.39C420,335.28,414.42,329.71,407.55,329.71
		L407.55,329.71z"/>
</g>
<rect x="68.88" y="97.33" class="st2" width="318.12" height="37.67"/>
<text transform="matrix(1 0 0 1 68.8818 123.106)" class="st3 st4">ໃບທະບຽນຍານພາຫະນະ</text>
<rect x="68.88" y="152.33" class="st2" width="118.12" height="25.67"/>
<text transform="matrix(1 0 0 1 68.8818 167.3662)" class="st3 st5">ຊື່ເຂົ້າຂອງລົດ:</text>
<rect x="193.88" y="152.33" class="st2" width="193.12" height="25.67"/>
<text transform="matrix(1 0 0 1 193.8818 167.3662)" class="st3 st5">SOULIVANH</text>
<rect x="68.88" y="195.33" class="st2" width="118.12" height="25.67"/>
<text transform="matrix(1 0 0 1 68.8818 210.3662)" class="st3 st5">ປະເພດລົດ:</text>
<rect x="193.88" y="195.33" class="st2" width="193.12" height="25.67"/>
<text transform="matrix(1 0 0 1 193.8818 210.3662)" class="st3 st5">ລົດເອົາ</text>
<rect x="68.88" y="238.33" class="st2" width="118.12" height="25.67"/>
<text transform="matrix(1 0 0 1 68.8818 253.3662)" class="st3 st5">ເລກຈັກ:</text>
<rect x="193.88" y="238.33" class="st2" width="193.12" height="25.67"/>
<text transform="matrix(1 0 0 1 193.8818 253.3662)" class="st3 st5">568sdadsd</text>
<rect x="68.88" y="281.33" class="st2" width="118.12" height="25.67"/>
<text transform="matrix(1 0 0 1 68.8818 296.3662)" class="st3 st5">ເລກຖັງ:</text>
<rect x="193.88" y="281.33" class="st2" width="193.12" height="25.67"/>
<text transform="matrix(1 0 0 1 193.8818 296.3662)" class="st3 st5">8523sadcvjjk</text>
<rect x="371.88" y="146.33" class="st2" width="118.12" height="25.67"/>
<text transform="matrix(1 0 0 1 371.8818 161.3662)" class="st3 st5">ອອກໃຫ້ວັນທີ:</text>
<rect x="496.88" y="146.33" class="st2" width="193.12" height="25.67"/>
<text transform="matrix(1 0 0 1 496.8818 161.3662)" class="st3 st5">10/10/1000</text>
<rect x="369.88" y="283.33" class="st2" width="118.12" height="25.67"/>
<text transform="matrix(1 0 0 1 369.8818 298.3662)" class="st3 st5">ສີ:</text>
<rect x="494.88" y="283.33" class="st2" width="193.12" height="25.67"/>
<text transform="matrix(1 0 0 1 494.8818 298.3662)" class="st3 st5">BLUE</text>
<rect x="370.88" y="238.33" class="st2" width="118.12" height="25.67"/>
<text transform="matrix(1 0 0 1 370.8818 253.3662)" class="st3 st5">ຍີຫໍ້:</text>
<rect x="495.88" y="238.33" class="st2" width="193.12" height="25.67"/>
<text transform="matrix(1 0 0 1 495.8818 253.3662)" class="st3 st5">BMW</text>
<rect x="371.88" y="177.33" class="st2" width="118.12" height="25.67"/>
<text transform="matrix(1 0 0 1 371.8818 192.3662)" class="st3 st5">ເຖີງ:</text>
<rect x="496.88" y="177.33" class="st2" width="193.12" height="25.67"/>
<text transform="matrix(1 0 0 1 496.8818 192.3662)" class="st3 st5">20/20/2000</text>
<rect x="278.88" y="350" class="st2" width="112.12" height="29"/>
<text transform="matrix(1 0 0 1 278.8818 371.4795)" class="st3 st6">ຮຮ 8111</text>
<rect x="99.88" y="350" class="st2" width="161.12" height="29"/>
<text transform="matrix(1 0 0 1 99.8818 371.4795)" class="st3 st6">ກໍາເເພງນະຄອນ</text>
<g>
	<path class="st7" d="M71.14,812.72c-24.06,0-43.64-19.58-43.64-43.64V493.14c0-24.06,19.58-43.64,43.64-43.64h513.73
		c24.06,0,43.64,19.58,43.64,43.64v275.95c0,24.06-19.58,43.64-43.64,43.64H71.14z"/>
	<path d="M584.86,450c23.79,0,43.14,19.35,43.14,43.14v275.95c0,23.79-19.35,43.14-43.14,43.14H71.14
		c-23.79,0-43.14-19.35-43.14-43.14V493.14C28,469.35,47.35,450,71.14,450H584.86 M584.86,449H71.14C46.76,449,27,468.76,27,493.14
		v275.95c0,24.38,19.76,44.14,44.14,44.14h513.73c24.38,0,44.14-19.76,44.14-44.14V493.14C629,468.76,609.24,449,584.86,449
		L584.86,449z"/>
</g>
<g>
	<path class="st8" d="M699.14,814.99c-24.06,0-43.64-19.58-43.64-43.64V495.4c0-24.06,19.58-43.64,43.64-43.64h513.73
		c24.06,0,43.64,19.58,43.64,43.64v275.95c0,24.06-19.58,43.64-43.64,43.64H699.14z"/>
	<path d="M1212.86,452.27c23.79,0,43.14,19.35,43.14,43.14v275.95c0,23.79-19.35,43.14-43.14,43.14H699.14
		c-23.79,0-43.14-19.35-43.14-43.14V495.4c0-23.79,19.35-43.14,43.14-43.14H1212.86 M1212.86,451.27H699.14
		c-24.38,0-44.14,19.76-44.14,44.14v275.95c0,24.38,19.76,44.14,44.14,44.14h513.73c24.38,0,44.14-19.76,44.14-44.14V495.4
		C1257,471.03,1237.24,451.27,1212.86,451.27L1212.86,451.27z"/>
</g>
<rect x="68.88" y="493.33" class="st2" width="580.12" height="37.67"/>
<text transform="matrix(1 0 0 1 68.8818 519.106)" class="st3 st4">ໃບຍັ້ງຍືນກ່ວດກ່າເຕັກນີກຍານພາຫະນະ</text>
<rect x="68.88" y="548.33" class="st2" width="118.12" height="25.67"/>
<text transform="matrix(1 0 0 1 68.8818 563.3662)" class="st3 st5">ອອກຊື່:</text>
<rect x="193.88" y="548.33" class="st2" width="193.12" height="25.67"/>
<text transform="matrix(1 0 0 1 193.8818 563.3662)" class="st3 st5">SOULIVANH</text>
<rect x="68.88" y="591.33" class="st2" width="118.12" height="25.67"/>
<text transform="matrix(1 0 0 1 68.8818 606.3662)" class="st3 st5">ປະເພດລົດ:</text>
<rect x="193.88" y="591.33" class="st2" width="193.12" height="25.67"/>
<text transform="matrix(1 0 0 1 193.8818 606.3662)" class="st3 st5">ລົດເອົາ</text>
<rect x="64.88" y="690.33" class="st2" width="118.12" height="25.67"/>
<text transform="matrix(1 0 0 1 64.8818 705.3662)" class="st3 st5">ອອກໃຫ້ວັນທີ:</text>
<rect x="189.88" y="690.33" class="st2" width="125.12" height="25.67"/>
<text transform="matrix(1 0 0 1 189.8818 705.3667)" class="st3 st5">10/10/1000</text>
<rect x="68.88" y="634.33" class="st2" width="118.12" height="25.67"/>
<text transform="matrix(1 0 0 1 68.8818 649.3662)" class="st3 st5">ຍີຫໍ້:</text>
<rect x="193.88" y="634.33" class="st2" width="193.12" height="25.67"/>
<text transform="matrix(1 0 0 1 193.8818 649.3662)" class="st3 st5">BMW</text>
<rect x="381.88" y="689.33" class="st2" width="72.12" height="18.67"/>
<text transform="matrix(1 0 0 1 381.8818 704.3667)" class="st3 st5">ເຖີງ:</text>
<rect x="460.88" y="689.33" class="st2" width="193.12" height="18.67"/>
<text transform="matrix(1 0 0 1 460.8818 704.3667)" class="st3 st5">20/20/2000</text>
<rect x="385.14" y="742" class="st2" width="149.86" height="55"/>
<text transform="matrix(1 0 0 1 385.1392 769.9233)" class="st3 st9">ຮຮ 8111</text>
<rect x="145.88" y="742" class="st2" width="215.36" height="55"/>
<text transform="matrix(1 0 0 1 145.8818 769.9233)" class="st3 st9">ກໍາເເພງນະຄອນ</text>
<rect x="957.56" y="491" class="st2" width="119.44" height="28"/>
<text transform="matrix(1 0 0 1 957.5645 511.0479)" class="st3 st10">ຮຮ 8111</text>
<rect x="766.88" y="491" class="st2" width="168.12" height="28"/>
<text transform="matrix(1 0 0 1 766.8818 511.0479)" class="st3 st10">ກໍາເເພງນະຄອນ</text>
<g>
	<path class="st11" d="M65.14,1209c-24.06,0-43.64-19.58-43.64-43.64V889.41c0-24.06,19.58-43.64,43.64-43.64h292.73
		c24.06,0,43.64,19.58,43.64,43.64v275.95c0,24.06-19.58,43.64-43.64,43.64H65.14z"/>
	<path d="M357.86,846.27c23.79,0,43.14,19.35,43.14,43.14v275.95c0,23.79-19.35,43.14-43.14,43.14H65.14
		c-23.79,0-43.14-19.35-43.14-43.14V889.41c0-23.79,19.35-43.14,43.14-43.14H357.86 M357.86,845.27H65.14
		c-24.38,0-44.14,19.76-44.14,44.14v275.95c0,24.38,19.76,44.14,44.14,44.14h292.73c24.38,0,44.14-19.76,44.14-44.14V889.41
		C402,865.03,382.24,845.27,357.86,845.27L357.86,845.27z"/>
</g>
<rect x="99.88" y="889.61" class="st2" width="230.12" height="37.67"/>
<text transform="matrix(1 0 0 1 99.8818 915.3807)" class="st3 st4">ປະກັນໄພລົດ ໄທ</text>
<rect x="59.88" y="1005.61" class="st2" width="80.12" height="25.67"/>
<text transform="matrix(1 0 0 1 59.8818 1020.641)" class="st3 st5">ເລກຖັງ:</text>
<rect x="132.88" y="1005.61" class="st2" width="128.12" height="25.67"/>
<text transform="matrix(1 0 0 1 132.8818 1020.641)" class="st3 st5">8523sadcvjjk</text>
<rect x="64.88" y="958.61" class="st2" width="118.12" height="25.67"/>
<text transform="matrix(1 0 0 1 64.8818 973.6405)" class="st3 st5">ຍີຫໍ້:</text>
<rect x="134.88" y="957.61" class="st2" width="83.12" height="25.67"/>
<text transform="matrix(1 0 0 1 134.8818 972.641)" class="st3 st5">BMW</text>
<g>
	<path class="st12" d="M481.14,1209.24c-24.06,0-43.64-19.58-43.64-43.64V889.65c0-24.06,19.58-43.64,43.64-43.64h292.73
		c24.06,0,43.64,19.58,43.64,43.64v275.95c0,24.06-19.58,43.64-43.64,43.64H481.14z"/>
	<path d="M773.86,846.52c23.79,0,43.14,19.35,43.14,43.14v275.95c0,23.79-19.35,43.14-43.14,43.14H481.14
		c-23.79,0-43.14-19.35-43.14-43.14V889.65c0-23.79,19.35-43.14,43.14-43.14H773.86 M773.86,845.52H481.14
		c-24.38,0-44.14,19.76-44.14,44.14v275.95c0,24.38,19.76,44.14,44.14,44.14h292.73c24.38,0,44.14-19.76,44.14-44.14V889.65
		C818,865.28,798.24,845.52,773.86,845.52L773.86,845.52z"/>
</g>
<rect x="518.88" y="890.85" class="st2" width="230.12" height="37.67"/>
<text transform="matrix(1 0 0 1 518.8818 916.6229)" class="st3 st4">ປະກັນໄພລົດ ວຽດ</text>
<rect x="475.88" y="1005.85" class="st2" width="80.12" height="25.67"/>
<text transform="matrix(1 0 0 1 475.8818 1020.8831)" class="st3 st5">ເລກຖັງ:</text>
<rect x="548.88" y="1005.85" class="st2" width="128.12" height="25.67"/>
<text transform="matrix(1 0 0 1 548.8818 1020.8831)" class="st3 st5">8523sadcvjjk</text>
<rect x="480.88" y="958.85" class="st2" width="118.12" height="25.67"/>
<text transform="matrix(1 0 0 1 480.8818 973.8826)" class="st3 st5">ຍີຫໍ້:</text>
<rect x="550.88" y="957.85" class="st2" width="83.12" height="25.67"/>
<text transform="matrix(1 0 0 1 550.8818 972.8831)" class="st3 st5">BMW</text>
<g>
	<path class="st13" d="M897.14,1209.48c-24.06,0-43.64-19.58-43.64-43.64V889.89c0-24.06,19.58-43.64,43.64-43.64h292.73
		c24.06,0,43.64,19.58,43.64,43.64v275.95c0,24.06-19.58,43.64-43.64,43.64H897.14z"/>
	<path d="M1189.86,846.76c23.79,0,43.14,19.35,43.14,43.14v275.95c0,23.79-19.35,43.14-43.14,43.14H897.14
		c-23.79,0-43.14-19.35-43.14-43.14V889.89c0-23.79,19.35-43.14,43.14-43.14H1189.86 M1189.86,845.76H897.14
		c-24.38,0-44.14,19.76-44.14,44.14v275.95c0,24.38,19.76,44.14,44.14,44.14h292.73c24.38,0,44.14-19.76,44.14-44.14V889.89
		C1234,865.52,1214.24,845.76,1189.86,845.76L1189.86,845.76z"/>
</g>
<rect x="937.88" y="890.09" class="st2" width="230.12" height="37.67"/>
<text transform="matrix(1 0 0 1 937.8818 915.865)" class="st3 st4">ປະກັນໄພລົດ ລາວ</text>
<rect x="891.88" y="1006.09" class="st2" width="80.12" height="25.67"/>
<text transform="matrix(1 0 0 1 891.8818 1021.1252)" class="st3 st5">ເລກຖັງ:</text>
<rect x="964.88" y="1006.09" class="st2" width="128.12" height="25.67"/>
<text transform="matrix(1 0 0 1 964.8818 1021.1252)" class="st3 st5">8523sadcvjjk</text>
<rect x="896.88" y="959.09" class="st2" width="118.12" height="25.67"/>
<text transform="matrix(1 0 0 1 896.8818 974.1248)" class="st3 st5">ຍີຫໍ້:</text>
<rect x="966.88" y="958.09" class="st2" width="83.12" height="25.67"/>
<text transform="matrix(1 0 0 1 966.8818 973.1252)" class="st3 st5">BMW</text>
<g>
	<path class="st14" d="M702.84,427.5c-26.66,0-48.34-21.69-48.34-48.34V100.84c0-26.66,21.69-48.34,48.34-48.34h493.31
		c26.66,0,48.34,21.69,48.34,48.34v278.32c0,26.66-21.69,48.34-48.34,48.34H702.84z"/>
	<path class="st11" d="M1196.16,53c26.38,0,47.84,21.46,47.84,47.84v278.31c0,26.38-21.46,47.84-47.84,47.84H702.84
		c-26.38,0-47.84-21.46-47.84-47.84V100.84C655,74.46,676.46,53,702.84,53H1196.16 M1196.16,52H702.84
		C675.87,52,654,73.87,654,100.84v278.31c0,26.97,21.87,48.84,48.84,48.84h493.31c26.97,0,48.84-21.87,48.84-48.84V100.84
		C1245,73.87,1223.13,52,1196.16,52L1196.16,52z"/>
</g>
<rect x="693.88" y="554.33" class="st2" width="94.73" height="25.67"/>
<text transform="matrix(1 0 0 1 693.8818 569.3667)" class="st3 st5">ປະເພດລົດ:</text>
<rect x="794.13" y="554.33" class="st2" width="64.87" height="25.67"/>
<text transform="matrix(1 0 0 1 794.127 569.3667)" class="st3 st5">ລົດເອົາ</text>
<rect x="693.88" y="591.33" class="st2" width="52.4" height="25.67"/>
<text transform="matrix(1 0 0 1 693.8818 606.3667)" class="st3 st5">ສີ:</text>
<rect x="792.33" y="593.33" class="st2" width="85.67" height="25.67"/>
<text transform="matrix(1 0 0 1 792.332 608.3667)" class="st3 st5">BLUE</text>
<rect x="693.88" y="634.33" class="st2" width="94.12" height="25.67"/>
<text transform="matrix(1 0 0 1 693.8818 649.3667)" class="st3 st5">ພວງມະໄລ:</text>
<rect x="792.33" y="636.33" class="st2" width="85.67" height="25.67"/>
<text transform="matrix(1 0 0 1 792.332 651.3667)" class="st3 st5">BLUE</text>
<rect x="693.88" y="683" class="st2" width="70.12" height="32"/>
<text transform="matrix(1 0 0 1 693.8818 698.0356)" class="st3 st5">ນໍ້າມັນ:</text>
<rect x="770.33" y="686.33" class="st2" width="85.67" height="25.67"/>
<text transform="matrix(1 0 0 1 770.332 701.3667)" class="st3 st5">ເເອັດຂັງ</text>
<rect x="694.88" y="721" class="st2" width="70.12" height="32"/>
<text transform="matrix(1 0 0 1 694.8818 736.0356)" class="st3 st5">ຍີ່ຫໍ້ຈັກ:</text>
<rect x="771.33" y="724.33" class="st2" width="160.67" height="25.67"/>
<text transform="matrix(1 0 0 1 771.332 739.3667)" class="st3 st5">156845612315</text>
<rect x="694.88" y="764" class="st2" width="70.12" height="32"/>
<text transform="matrix(1 0 0 1 694.8818 779.0356)" class="st3 st5">ຊີຊີ:</text>
<rect x="771.33" y="767.33" class="st2" width="160.67" height="25.67"/>
<text transform="matrix(1 0 0 1 771.332 782.3667)" class="st3 st5">2</text>
<rect x="953.88" y="721.33" class="st2" width="75.42" height="25.67"/>
<text transform="matrix(1 0 0 1 953.8818 736.3667)" class="st3 st5">ເລກຖັງ:</text>
<rect x="1069.69" y="721.33" class="st2" width="123.31" height="25.67"/>
<text transform="matrix(1 0 0 1 1069.6943 736.3667)" class="st3 st5">8523sadcvjjk</text>
<rect x="953.88" y="556.33" class="st2" width="75.42" height="25.67"/>
<text transform="matrix(1 0 0 1 953.8818 571.3667)" class="st3 st5">ກ້ວາງ:</text>
<rect x="1069.69" y="556.33" class="st2" width="123.31" height="25.67"/>
<text transform="matrix(1 0 0 1 1069.6943 571.3667)" class="st3 st5">8523sadcvjjk</text>
<rect x="953.88" y="591.33" class="st2" width="75.42" height="25.67"/>
<text transform="matrix(1 0 0 1 953.8818 606.3667)" class="st3 st5">ຍາວ:</text>
<rect x="1069.69" y="591.33" class="st2" width="123.31" height="25.67"/>
<text transform="matrix(1 0 0 1 1069.6943 606.3667)" class="st3 st5">8523sadcvjjk</text>
<rect x="953.88" y="618.33" class="st2" width="75.42" height="25.67"/>
<text transform="matrix(1 0 0 1 953.8818 633.3667)" class="st3 st5">ສູງ:</text>
<rect x="1069.69" y="618.33" class="st2" width="123.31" height="25.67"/>
<text transform="matrix(1 0 0 1 1069.6943 633.3667)" class="st3 st5">8523sadcvjjk</text>
<rect x="953.88" y="645.33" class="st2" width="68.12" height="25.67"/>
<text transform="matrix(1 0 0 1 953.8818 660.3667)" class="st3 st5">ບ່ອນນັ່ງ:</text>
<rect x="1069.69" y="645.33" class="st2" width="123.31" height="25.67"/>
<text transform="matrix(1 0 0 1 1069.6943 660.3667)" class="st3 st5">8523sadcvjjk</text>
<rect x="953.88" y="672.33" class="st2" width="104.12" height="25.67"/>
<text transform="matrix(1 0 0 1 953.8818 687.3667)" class="st3 st5">ນໍ້າໜັກລວມ:</text>
<rect x="1069.69" y="672.33" class="st2" width="123.31" height="25.67"/>
<text transform="matrix(1 0 0 1 1069.6943 687.3667)" class="st3 st5">8523sadcvjjk</text>
<rect x="952.88" y="769.33" class="st2" width="118.12" height="25.67"/>
<text transform="matrix(1 0 0 1 952.8818 784.3662)" class="st3 st5">ຍີຫໍ້:</text>
<rect x="1077.88" y="769.33" class="st2" width="193.12" height="25.67"/>
<text transform="matrix(1 0 0 1 1077.8818 784.3662)" class="st3 st5">BMW</text>
</svg>
