<?xml version="1.0" encoding="utf-8"?>
<!-- Generator: Adobe Illustrator 28.2.0, SVG Export Plug-In . SVG Version: 6.00 Build 0)  -->
<svg version="1.1" id="Layer_1" xmlns="http://www.w3.org/2000/svg" xmlns:xlink="http://www.w3.org/1999/xlink" x="0px" y="0px"
	 viewBox="0 0 1280 1024" style="enable-background:new 0 0 1280 1024;" xml:space="preserve">
<style type="text/css">
	.st0{fill:#18D4E8;}
	.st1{fill:#E7ED07;}
</style>
<g>
	<path class="st0" d="M78.14,388.5c-24.06,0-43.64-19.58-43.64-43.64V152.14c0-24.06,19.58-43.64,43.64-43.64h392.94
		c24.06,0,43.64,19.58,43.64,43.64v192.73c0,24.06-19.58,43.64-43.64,43.64H78.14z"/>
	<path d="M471.08,109c23.79,0,43.14,19.35,43.14,43.14v192.73c0,23.79-19.35,43.14-43.14,43.14H78.14C54.35,388,35,368.65,35,344.86
		V152.14C35,128.35,54.35,109,78.14,109H471.08 M471.08,108H78.14C53.76,108,34,127.76,34,152.14v192.73
		C34,369.24,53.76,389,78.14,389h392.94c24.38,0,44.14-19.76,44.14-44.14V152.14C515.21,127.76,495.45,108,471.08,108L471.08,108z"
		/>
</g>
<g>
	<path class="st1" d="M94.85,374.45c-6.59,0-11.95-5.36-11.95-11.95v-28.56c0-6.59,5.36-11.95,11.95-11.95h83.59
		c6.59,0,11.95,5.36,11.95,11.95v28.56c0,6.59-5.36,11.95-11.95,11.95H94.85z"/>
	<path d="M178.44,322.48c6.32,0,11.45,5.14,11.45,11.45v28.56c0,6.32-5.14,11.45-11.45,11.45H94.85c-6.32,0-11.45-5.14-11.45-11.45
		v-28.56c0-6.32,5.14-11.45,11.45-11.45H178.44 M178.44,321.48H94.85c-6.88,0-12.45,5.58-12.45,12.45v28.56
		c0,6.88,5.58,12.45,12.45,12.45h83.59c6.88,0,12.45-5.58,12.45-12.45v-28.56C190.89,327.06,185.32,321.48,178.44,321.48
		L178.44,321.48z"/>
</g>
<g>
	<path d="M132.49,273.7c8.41,0,15.25,6.84,15.25,15.25v4.18c0,8.41-6.84,15.25-15.25,15.25H74.06c-8.41,0-15.25-6.84-15.25-15.25
		v-4.18c0-8.41,6.84-15.25,15.25-15.25H132.49 M132.49,272.7H74.06c-8.98,0-16.25,7.28-16.25,16.25v4.18
		c0,8.98,7.28,16.25,16.25,16.25h58.43c8.98,0,16.25-7.28,16.25-16.25v-4.18C148.74,279.97,141.46,272.7,132.49,272.7L132.49,272.7z
		"/>
</g>
<g>
	<path d="M231.23,273.7c8.41,0,15.25,6.84,15.25,15.25v4.18c0,8.41-6.84,15.25-15.25,15.25H172.8c-8.41,0-15.25-6.84-15.25-15.25
		v-4.18c0-8.41,6.84-15.25,15.25-15.25H231.23 M231.23,272.7H172.8c-8.98,0-16.25,7.28-16.25,16.25v4.18
		c0,8.98,7.28,16.25,16.25,16.25h58.43c8.98,0,16.25-7.28,16.25-16.25v-4.18C247.48,279.97,240.2,272.7,231.23,272.7L231.23,272.7z"
		/>
</g>
<g>
	<path d="M139.23,224.91c4.69,0,8.51,3.82,8.51,8.51v2.44c0,4.69-3.82,8.51-8.51,8.51H67.32c-4.69,0-8.51-3.82-8.51-8.51v-2.44
		c0-4.69,3.82-8.51,8.51-8.51H139.23 M139.23,223.91H67.32c-5.25,0-9.51,4.26-9.51,9.51v2.44c0,5.25,4.26,9.51,9.51,9.51h71.91
		c5.25,0,9.51-4.26,9.51-9.51v-2.44C148.74,228.17,144.48,223.91,139.23,223.91L139.23,223.91z"/>
</g>
<g>
	<path d="M139.23,249.5c4.69,0,8.51,3.82,8.51,8.51v2.44c0,4.69-3.82,8.51-8.51,8.51H67.32c-4.69,0-8.51-3.82-8.51-8.51v-2.44
		c0-4.69,3.82-8.51,8.51-8.51H139.23 M139.23,248.5H67.32c-5.25,0-9.51,4.26-9.51,9.51v2.44c0,5.25,4.26,9.51,9.51,9.51h71.91
		c5.25,0,9.51-4.26,9.51-9.51v-2.44C148.74,252.76,144.48,248.5,139.23,248.5L139.23,248.5z"/>
</g>
<g>
	<path d="M132.49,182.76c8.41,0,15.25,6.84,15.25,15.25v4.18c0,8.41-6.84,15.25-15.25,15.25H74.06c-8.41,0-15.25-6.84-15.25-15.25
		v-4.18c0-8.41,6.84-15.25,15.25-15.25H132.49 M132.49,181.76H74.06c-8.98,0-16.25,7.28-16.25,16.25v4.18
		c0,8.98,7.28,16.25,16.25,16.25h58.43c8.98,0,16.25-7.28,16.25-16.25v-4.18C148.74,189.04,141.46,181.76,132.49,181.76
		L132.49,181.76z"/>
</g>
<g>
	<path d="M345.78,223.35c5.07,0,9.2,4.13,9.2,9.2v2.62c0,5.07-4.13,9.2-9.2,9.2H239.34c-5.07,0-9.2-4.13-9.2-9.2v-2.62
		c0-5.07,4.13-9.2,9.2-9.2H345.78 M345.78,222.35H239.34c-5.63,0-10.2,4.57-10.2,10.2v2.62c0,5.63,4.57,10.2,10.2,10.2h106.44
		c5.63,0,10.2-4.57,10.2-10.2v-2.62C355.98,226.92,351.41,222.35,345.78,222.35L345.78,222.35z"/>
</g>
</svg>
